REM DIRINDEX 1\2\4\8,1\2\4\9,1\2\4\10,1\2\5\11,1\2\5\12,1\2\5\13,1\2\5\14,1\2\5\15,1\3\6\16,1\3\6\17,1\3\6\18,1\3\7\19,1\3\7\20,1\3\7\21,1\3\7\22,1\3\7\23
REM DIRNAME "folder01","folder02","folder03","folder04","folder05","folder06","folder07","folder08","folder09","folder10","folder11","folder12","folder13","folder14","folder15","folder16","folder17","folder18","folder19","folder20","folder21","folder22","folder23"
TITLE ""
FILE "LR_black_phrase_S06.mp3" MP3
  TRACK 01 AUDIO
    TITLE "0:"
    INDEX 01 00:00:00
  TRACK 02 AUDIO
    TITLE "19:cjc171_15501"
    INDEX 01 00:00:14
  TRACK 03 AUDIO
    TITLE "0:"
    INDEX 01 00:01:55
  TRACK 04 AUDIO
    TITLE "20:cjc171_15502"
    INDEX 01 00:02:19
  TRACK 05 AUDIO
    TITLE "0:"
    INDEX 01 00:05:25
  TRACK 06 AUDIO
    TITLE "21:cjc171_15503"
    INDEX 01 00:06:25
  TRACK 07 AUDIO
    TITLE "0:"
    INDEX 01 00:08:45
  TRACK 08 AUDIO
    TITLE "22:cjc171_15504"
    INDEX 01 00:09:09
  TRACK 09 AUDIO
    TITLE "0:"
    INDEX 01 00:11:24
  TRACK 10 AUDIO
    TITLE "23:cjc171_15505"
    INDEX 01 00:11:55
  TRACK 11 AUDIO
    TITLE "0:"
    INDEX 01 00:13:68
  TRACK 12 AUDIO
    TITLE "19:cjc171_15506"
    INDEX 01 00:15:00
  TRACK 13 AUDIO
    TITLE "0:"
    INDEX 01 00:16:21
  TRACK 14 AUDIO
    TITLE "20:cjc171_15507"
    INDEX 01 00:16:64
  TRACK 15 AUDIO
    TITLE "0:"
    INDEX 01 00:20:33
  TRACK 16 AUDIO
    TITLE "21:cjc171_15508"
    INDEX 01 00:21:32
  TRACK 17 AUDIO
    TITLE "0:"
    INDEX 01 00:23:64
  TRACK 18 AUDIO
    TITLE "22:cjc171_15509"
    INDEX 01 00:24:28
  TRACK 19 AUDIO
    TITLE "0:"
    INDEX 01 00:26:12
  TRACK 20 AUDIO
    TITLE "23:cjc171_15510"
    INDEX 01 00:26:39
  TRACK 21 AUDIO
    TITLE "0:"
    INDEX 01 00:28:20
  TRACK 22 AUDIO
    TITLE "19:cjc171_15511"
    INDEX 01 00:29:20
  TRACK 23 AUDIO
    TITLE "0:"
    INDEX 01 00:30:35
  TRACK 24 AUDIO
    TITLE "20:cjc171_15512"
    INDEX 01 00:30:70
  TRACK 25 AUDIO
    TITLE "0:"
    INDEX 01 00:33:20
  TRACK 26 AUDIO
    TITLE "21:cjc171_15513"
    INDEX 01 00:34:17
  TRACK 27 AUDIO
    TITLE "0:"
    INDEX 01 00:36:22
  TRACK 28 AUDIO
    TITLE "22:cjc171_15514"
    INDEX 01 00:36:57
  TRACK 29 AUDIO
    TITLE "0:"
    INDEX 01 00:38:64
  TRACK 30 AUDIO
    TITLE "23:cjc171_15515"
    INDEX 01 00:39:10
  TRACK 31 AUDIO
    TITLE "0:"
    INDEX 01 00:41:17
  TRACK 32 AUDIO
    TITLE "19:cjc171_15516"
    INDEX 01 00:42:15
  TRACK 33 AUDIO
    TITLE "0:"
    INDEX 01 00:43:36
  TRACK 34 AUDIO
    TITLE "20:cjc171_15517"
    INDEX 01 00:43:73
  TRACK 35 AUDIO
    TITLE "0:"
    INDEX 01 00:46:57
  TRACK 36 AUDIO
    TITLE "21:cjc171_15518"
    INDEX 01 00:47:57
  TRACK 37 AUDIO
    TITLE "0:"
    INDEX 01 00:49:50
  TRACK 38 AUDIO
    TITLE "22:cjc171_15519"
    INDEX 01 00:50:08
  TRACK 39 AUDIO
    TITLE "0:"
    INDEX 01 00:51:70
  TRACK 40 AUDIO
    TITLE "23:cjc171_15520"
    INDEX 01 00:52:17
  TRACK 41 AUDIO
    TITLE "0:"
    INDEX 01 00:54:04
  TRACK 42 AUDIO
    TITLE "19:cjc171_15521"
    INDEX 01 00:55:07
  TRACK 43 AUDIO
    TITLE "0:"
    INDEX 01 00:56:25
  TRACK 44 AUDIO
    TITLE "20:cjc171_15522"
    INDEX 01 00:56:62
  TRACK 45 AUDIO
    TITLE "0:"
    INDEX 01 00:58:08
  TRACK 46 AUDIO
    TITLE "21:cjc171_15523"
    INDEX 01 00:59:07
  TRACK 47 AUDIO
    TITLE "0:"
    INDEX 01 01:01:12
  TRACK 48 AUDIO
    TITLE "22:cjc171_15524"
    INDEX 01 01:01:49
  TRACK 49 AUDIO
    TITLE "0:"
    INDEX 01 01:04:02
  TRACK 50 AUDIO
    TITLE "23:cjc171_15525"
    INDEX 01 01:04:32
  TRACK 51 AUDIO
    TITLE "0:"
    INDEX 01 01:06:60
  TRACK 52 AUDIO
    TITLE "19:cjc171_15526"
    INDEX 01 01:07:65
  TRACK 53 AUDIO
    TITLE "0:"
    INDEX 01 01:09:10
  TRACK 54 AUDIO
    TITLE "20:cjc171_15527"
    INDEX 01 01:09:47
  TRACK 55 AUDIO
    TITLE "0:"
    INDEX 01 01:12:22
  TRACK 56 AUDIO
    TITLE "21:cjc171_15528"
    INDEX 01 01:13:21
  TRACK 57 AUDIO
    TITLE "0:"
    INDEX 01 01:15:49
  TRACK 58 AUDIO
    TITLE "22:cjc171_15529"
    INDEX 01 01:16:15
  TRACK 59 AUDIO
    TITLE "0:"
    INDEX 01 01:18:61
  TRACK 60 AUDIO
    TITLE "23:cjc171_15530"
    INDEX 01 01:19:18
  TRACK 61 AUDIO
    TITLE "0:"
    INDEX 01 01:21:64
  TRACK 62 AUDIO
    TITLE "19:cjc171_15531"
    INDEX 01 01:22:65
  TRACK 63 AUDIO
    TITLE "0:"
    INDEX 01 01:23:74
  TRACK 64 AUDIO
    TITLE "20:cjc171_15532"
    INDEX 01 01:24:37
  TRACK 65 AUDIO
    TITLE "0:"
    INDEX 01 01:27:39
  TRACK 66 AUDIO
    TITLE "21:cjc171_15533"
    INDEX 01 01:28:38
  TRACK 67 AUDIO
    TITLE "0:"
    INDEX 01 01:30:51
  TRACK 68 AUDIO
    TITLE "22:cjc171_15534"
    INDEX 01 01:31:09
  TRACK 69 AUDIO
    TITLE "0:"
    INDEX 01 01:32:65
  TRACK 70 AUDIO
    TITLE "23:cjc171_15535"
    INDEX 01 01:33:10
  TRACK 71 AUDIO
    TITLE "0:"
    INDEX 01 01:34:64
  TRACK 72 AUDIO
    TITLE "19:cjc171_15536"
    INDEX 01 01:35:60
  TRACK 73 AUDIO
    TITLE "0:"
    INDEX 01 01:37:12
  TRACK 74 AUDIO
    TITLE "20:cjc171_15537"
    INDEX 01 01:37:51
  TRACK 75 AUDIO
    TITLE "0:"
    INDEX 01 01:40:14
  TRACK 76 AUDIO
    TITLE "21:cjc171_15538"
    INDEX 01 01:41:13
  TRACK 77 AUDIO
    TITLE "0:"
    INDEX 01 01:43:53
  TRACK 78 AUDIO
    TITLE "22:cjc171_15539"
    INDEX 01 01:44:12
  TRACK 79 AUDIO
    TITLE "0:"
    INDEX 01 01:46:50
  TRACK 80 AUDIO
    TITLE "23:cjc171_15540"
    INDEX 01 01:46:71
  TRACK 81 AUDIO
    TITLE "0:"
    INDEX 01 01:49:36
  TRACK 82 AUDIO
    TITLE "19:cjc171_15541"
    INDEX 01 01:50:38
  TRACK 83 AUDIO
    TITLE "0:"
    INDEX 01 01:51:49
  TRACK 84 AUDIO
    TITLE "20:cjc171_15542"
    INDEX 01 01:52:15
  TRACK 85 AUDIO
    TITLE "0:"
    INDEX 01 01:54:42
  TRACK 86 AUDIO
    TITLE "21:cjc171_15543"
    INDEX 01 01:55:43
  TRACK 87 AUDIO
    TITLE "0:"
    INDEX 01 01:58:08
  TRACK 88 AUDIO
    TITLE "22:cjc171_15544"
    INDEX 01 01:58:51
  TRACK 89 AUDIO
    TITLE "0:"
    INDEX 01 02:01:20
  TRACK 90 AUDIO
    TITLE "23:cjc171_15545"
    INDEX 01 02:01:49
  TRACK 91 AUDIO
    TITLE "0:"
    INDEX 01 02:04:20
  TRACK 92 AUDIO
    TITLE "19:cjc171_15546"
    INDEX 01 02:05:24
  TRACK 93 AUDIO
    TITLE "0:"
    INDEX 01 02:06:43
  TRACK 94 AUDIO
    TITLE "20:cjc171_15547"
    INDEX 01 02:07:09
  TRACK 95 AUDIO
    TITLE "0:"
    INDEX 01 02:09:51
  TRACK 96 AUDIO
    TITLE "21:cjc171_15548"
    INDEX 01 02:10:50
  TRACK 97 AUDIO
    TITLE "0:"
    INDEX 01 02:12:67
  TRACK 98 AUDIO
    TITLE "22:cjc171_15549"
    INDEX 01 02:13:33
  TRACK 99 AUDIO
    TITLE "0:"
    INDEX 01 02:15:16
  TRACK 100 AUDIO
    TITLE "23:cjc171_15550"
    INDEX 01 02:15:44
  TRACK 101 AUDIO
    TITLE "0:"
    INDEX 01 02:17:29
  TRACK 102 AUDIO
    TITLE "19:cjc171_15551"
    INDEX 01 02:18:26
  TRACK 103 AUDIO
    TITLE "0:"
    INDEX 01 02:19:43
  TRACK 104 AUDIO
    TITLE "20:cjc171_15552"
    INDEX 01 02:20:06
  TRACK 105 AUDIO
    TITLE "0:"
    INDEX 01 02:22:28
  TRACK 106 AUDIO
    TITLE "21:cjc171_15553"
    INDEX 01 02:23:29
  TRACK 107 AUDIO
    TITLE "0:"
    INDEX 01 02:25:38
  TRACK 108 AUDIO
    TITLE "22:cjc171_15554"
    INDEX 01 02:25:71
  TRACK 109 AUDIO
    TITLE "0:"
    INDEX 01 02:28:40
  TRACK 110 AUDIO
    TITLE "23:cjc171_15555"
    INDEX 01 02:28:64
  TRACK 111 AUDIO
    TITLE "0:"
    INDEX 01 02:31:33
  TRACK 112 AUDIO
    TITLE "19:cjc171_15556"
    INDEX 01 02:32:32
  TRACK 113 AUDIO
    TITLE "0:"
    INDEX 01 02:33:45
  TRACK 114 AUDIO
    TITLE "20:cjc171_15557"
    INDEX 01 02:34:02
  TRACK 115 AUDIO
    TITLE "0:"
    INDEX 01 02:36:34
  TRACK 116 AUDIO
    TITLE "21:cjc171_15558"
    INDEX 01 02:37:30
  TRACK 117 AUDIO
    TITLE "0:"
    INDEX 01 02:39:58
  TRACK 118 AUDIO
    TITLE "22:cjc171_15559"
    INDEX 01 02:40:16
  TRACK 119 AUDIO
    TITLE "0:"
    INDEX 01 02:42:52
  TRACK 120 AUDIO
    TITLE "23:cjc171_15560"
    INDEX 01 02:42:72
  TRACK 121 AUDIO
    TITLE "0:"
    INDEX 01 02:45:33
  TRACK 122 AUDIO
    TITLE "19:cjc171_15561"
    INDEX 01 02:46:34
  TRACK 123 AUDIO
    TITLE "0:"
    INDEX 01 02:47:59
  TRACK 124 AUDIO
    TITLE "20:cjc171_15562"
    INDEX 01 02:48:18
  TRACK 125 AUDIO
    TITLE "0:"
    INDEX 01 02:51:28
  TRACK 126 AUDIO
    TITLE "21:cjc171_15563"
    INDEX 01 02:52:25
  TRACK 127 AUDIO
    TITLE "0:"
    INDEX 01 02:54:01
  TRACK 128 AUDIO
    TITLE "22:cjc171_15564"
    INDEX 01 02:54:40
  TRACK 129 AUDIO
    TITLE "0:"
    INDEX 01 02:56:62
  TRACK 130 AUDIO
    TITLE "23:cjc171_15565"
    INDEX 01 02:57:17
  TRACK 131 AUDIO
    TITLE "0:"
    INDEX 01 02:59:39
  TRACK 132 AUDIO
    TITLE "19:cjc171_15566"
    INDEX 01 03:00:44
  TRACK 133 AUDIO
    TITLE "0:"
    INDEX 01 03:01:54
  TRACK 134 AUDIO
    TITLE "20:cjc171_15567"
    INDEX 01 03:02:18
  TRACK 135 AUDIO
    TITLE "0:"
    INDEX 01 03:04:54
  TRACK 136 AUDIO
    TITLE "21:cjc171_15568"
    INDEX 01 03:05:55
  TRACK 137 AUDIO
    TITLE "0:"
    INDEX 01 03:07:42
  TRACK 138 AUDIO
    TITLE "22:cjc171_15569"
    INDEX 01 03:08:12
  TRACK 139 AUDIO
    TITLE "0:"
    INDEX 01 03:10:15
  TRACK 140 AUDIO
    TITLE "23:cjc171_15570"
    INDEX 01 03:10:45
  TRACK 141 AUDIO
    TITLE "0:"
    INDEX 01 03:12:48
  TRACK 142 AUDIO
    TITLE "19:cjc171_15571"
    INDEX 01 03:13:49
  TRACK 143 AUDIO
    TITLE "0:"
    INDEX 01 03:14:72
  TRACK 144 AUDIO
    TITLE "20:cjc171_15572"
    INDEX 01 03:15:30
  TRACK 145 AUDIO
    TITLE "0:"
    INDEX 01 03:18:11
  TRACK 146 AUDIO
    TITLE "21:cjc171_15573"
    INDEX 01 03:19:08
  TRACK 147 AUDIO
    TITLE "0:"
    INDEX 01 03:21:45
  TRACK 148 AUDIO
    TITLE "22:cjc171_15574"
    INDEX 01 03:22:09
  TRACK 149 AUDIO
    TITLE "0:"
    INDEX 01 03:24:27
  TRACK 150 AUDIO
    TITLE "23:cjc171_15575"
    INDEX 01 03:24:53
  TRACK 151 AUDIO
    TITLE "0:"
    INDEX 01 03:26:69
  TRACK 152 AUDIO
    TITLE "19:cjc171_15576"
    INDEX 01 03:27:65
  TRACK 153 AUDIO
    TITLE "0:"
    INDEX 01 03:29:15
  TRACK 154 AUDIO
    TITLE "20:cjc171_15577"
    INDEX 01 03:29:48
  TRACK 155 AUDIO
    TITLE "0:"
    INDEX 01 03:31:68
  TRACK 156 AUDIO
    TITLE "21:cjc171_15578"
    INDEX 01 03:32:68
  TRACK 157 AUDIO
    TITLE "0:"
    INDEX 01 03:34:47
  TRACK 158 AUDIO
    TITLE "22:cjc171_15579"
    INDEX 01 03:35:05
  TRACK 159 AUDIO
    TITLE "0:"
    INDEX 01 03:37:22
  TRACK 160 AUDIO
    TITLE "23:cjc171_15580"
    INDEX 01 03:37:42
  TRACK 161 AUDIO
    TITLE "0:"
    INDEX 01 03:39:60
  TRACK 162 AUDIO
    TITLE "19:cjc171_15581"
    INDEX 01 03:40:60
  TRACK 163 AUDIO
    TITLE "0:"
    INDEX 01 03:42:02
  TRACK 164 AUDIO
    TITLE "20:cjc171_15582"
    INDEX 01 03:42:39
  TRACK 165 AUDIO
    TITLE "0:"
    INDEX 01 03:45:49
  TRACK 166 AUDIO
    TITLE "21:cjc171_15583"
    INDEX 01 03:46:46
  TRACK 167 AUDIO
    TITLE "0:"
    INDEX 01 03:49:51
  TRACK 168 AUDIO
    TITLE "22:cjc171_15584"
    INDEX 01 03:50:15
  TRACK 169 AUDIO
    TITLE "0:"
    INDEX 01 03:52:43
  TRACK 170 AUDIO
    TITLE "23:cjc171_15585"
    INDEX 01 03:52:74
  TRACK 171 AUDIO
    TITLE "0:"
    INDEX 01 03:55:30
  TRACK 172 AUDIO
    TITLE "19:cjc171_15586"
    INDEX 01 03:56:35
  TRACK 173 AUDIO
    TITLE "0:"
    INDEX 01 03:57:66
  TRACK 174 AUDIO
    TITLE "20:cjc171_15587"
    INDEX 01 03:58:30
  TRACK 175 AUDIO
    TITLE "0:"
    INDEX 01 03:59:43
  TRACK 176 AUDIO
    TITLE "21:cjc171_15588"
    INDEX 01 04:00:43
  TRACK 177 AUDIO
    TITLE "0:"
    INDEX 01 04:02:61
  TRACK 178 AUDIO
    TITLE "22:cjc171_15589"
    INDEX 01 04:03:27
  TRACK 179 AUDIO
    TITLE "0:"
    INDEX 01 04:06:04
  TRACK 180 AUDIO
    TITLE "23:cjc171_15590"
    INDEX 01 04:06:35
  TRACK 181 AUDIO
    TITLE "0:"
    INDEX 01 04:09:12
  TRACK 182 AUDIO
    TITLE "19:cjc171_15591"
    INDEX 01 04:10:14
  TRACK 183 AUDIO
    TITLE "0:"
    INDEX 01 04:11:39
  TRACK 184 AUDIO
    TITLE "20:cjc171_15592"
    INDEX 01 04:11:74
  TRACK 185 AUDIO
    TITLE "0:"
    INDEX 01 04:15:32
  TRACK 186 AUDIO
    TITLE "21:cjc171_15593"
    INDEX 01 04:16:32
  TRACK 187 AUDIO
    TITLE "0:"
    INDEX 01 04:19:24
  TRACK 188 AUDIO
    TITLE "22:cjc171_15594"
    INDEX 01 04:19:60
  TRACK 189 AUDIO
    TITLE "0:"
    INDEX 01 04:22:23
  TRACK 190 AUDIO
    TITLE "23:cjc171_15595"
    INDEX 01 04:22:42
  TRACK 191 AUDIO
    TITLE "0:"
    INDEX 01 04:25:05
  TRACK 192 AUDIO
    TITLE "19:cjc171_15596"
    INDEX 01 04:25:74
  TRACK 193 AUDIO
    TITLE "0:"
    INDEX 01 04:27:26
  TRACK 194 AUDIO
    TITLE "20:cjc171_15597"
    INDEX 01 04:27:61
  TRACK 195 AUDIO
    TITLE "0:"
    INDEX 01 04:29:13
  TRACK 196 AUDIO
    TITLE "21:cjc171_15598"
    INDEX 01 04:30:12
  TRACK 197 AUDIO
    TITLE "0:"
    INDEX 01 04:32:43
  TRACK 198 AUDIO
    TITLE "22:cjc171_15599"
    INDEX 01 04:33:03
  TRACK 199 AUDIO
    TITLE "0:"
    INDEX 01 04:35:41
  TRACK 200 AUDIO
    TITLE "23:cjc171_15600"
    INDEX 01 04:35:59
  TRACK 201 AUDIO
    TITLE "0:"
    INDEX 01 04:38:24
